<?xml version="1.0" standalone="no"?>
<!DOCTYPE svg PUBLIC "-//W3C//DTD SVG 20010904//EN"
 "http://www.w3.org/TR/2001/REC-SVG-20010904/DTD/svg10.dtd">
<svg version="1.0" xmlns="http://www.w3.org/2000/svg"
 width="433.000000pt" height="433.000000pt" viewBox="0 0 433.000000 433.000000"
 preserveAspectRatio="xMidYMid meet">
<metadata>
Created by potrace 1.14, written by Peter Selinger 2001-2017
</metadata>
<g transform="translate(0.000000,433.000000) scale(0.100000,-0.100000)"
fill="#000000" stroke="none">
<path d="M2660 4225 c-9 -144 -80 -253 -196 -301 -19 -8 -85 -24 -146 -35
-136 -24 -323 -86 -443 -146 -191 -96 -334 -209 -490 -388 -36 -42 -147 -209
-182 -275 -63 -119 -146 -347 -132 -362 1 -2 -2 -12 -8 -23 -11 -20 -20 -74
-32 -202 -25 -259 38 -582 159 -823 120 -237 300 -440 531 -598 107 -72 315
-164 459 -202 183 -49 436 -62 616 -34 275 45 508 145 719 308 63 49 205 184
205 195 0 4 -129 118 -287 253 -159 136 -300 258 -314 270 -70 61 -124 104
-142 114 -24 14 -64 4 -104 -24 -166 -117 -376 -126 -561 -24 -66 36 -163 138
-189 197 -49 112 -56 148 -57 260 0 131 49 243 149 343 l53 53 64 -32 c49 -25
78 -33 133 -35 86 -4 145 20 223 89 60 54 41 57 227 -42 111 -59 156 -84 243
-133 66 -36 85 -28 208 87 11 11 65 61 119 110 55 50 109 100 122 113 l23 23
-44 47 c-24 26 -58 63 -76 82 -18 19 -58 62 -89 96 -31 33 -105 113 -166 178
-60 66 -128 138 -150 162 -22 23 -87 93 -145 155 -58 62 -120 128 -138 147
-41 43 -59 80 -55 112 13 113 -8 197 -67 262 -32 36 -39 40 -40 23z"/>
<path d="M2417 4213 c-1 -1 -29 -4 -62 -8 -33 -3 -87 -11 -120 -16 -33 -6 -70
-12 -81 -14 -12 -2 -64 -15 -116 -29 -341 -93 -651 -294 -914 -594 -194 -221
-333 -517 -398 -847 -11 -54 -14 -69 -20 -120 -3 -27 -9 -68 -12 -90 -6 -48
-6 -212 0 -240 2 -11 7 -54 11 -95 24 -262 123 -547 273 -784 60 -97 81 -119
146 -153 34 -18 54 -21 111 -18 110 6 149 29 112 67 -28 29 -146 186 -180 241
-116 182 -204 423 -232 632 -11 82 -13 314 -4 400 30 272 130 536 286 754 70
97 230 268 318 338 109 88 259 173 410 233 89 35 278 87 355 96 65 8 96 22
131 61 40 42 120 166 116 178 -3 8 -123 16 -130 8z"/>
<path d="M2074 729 c-18 -9 -107 -159 -253 -421 -103 -186 -106 -196 -72 -220
25 -18 1624 -19 1642 -1 28 28 21 43 -153 353 -14 25 -44 77 -67 117 -22 40
-41 77 -41 83 0 5 -3 10 -7 10 -5 0 -17 18 -27 40 l-19 40 -62 -63 c-73 -73
-164 -130 -254 -157 -70 -22 -248 -37 -269 -22 -7 5 -17 34 -21 65 -4 32 -10
59 -13 62 -3 3 -36 17 -74 31 -38 13 -95 38 -127 55 -63 33 -148 46 -183 28z"/>
</g>
</svg>
